<?xml version="1.0" encoding="UTF-8" standalone="no"?>
<!DOCTYPE svg PUBLIC "-//W3C//DTD SVG 1.1//EN" "http://www.w3.org/Graphics/SVG/1.1/DTD/svg11.dtd">
<svg width="100%" height="100%" viewBox="0 0 1005 1123" version="1.1" xmlns="http://www.w3.org/2000/svg" xmlns:xlink="http://www.w3.org/1999/xlink" xml:space="preserve" xmlns:serif="http://www.serif.com/" style="fill-rule:evenodd;clip-rule:evenodd;stroke-linejoin:round;stroke-miterlimit:2;">
    <g transform="matrix(1,0,0,1,-1062,-2893)">
        <g id="Infotronics-Icon-BW-Outline" transform="matrix(0.404762,0,0,0.319865,1062.992126,2893.700787)">
            <rect x="0" y="0" width="2480.315" height="3507.874" style="fill:none;"/>
            <g transform="matrix(2.470588,0,0,3.126316,-2917.955511,-4174.168914)">
                <path d="M1590.981,1985.167L1590.981,2266.26C1590.981,2267.749 1590.187,2269.124 1588.898,2269.869L1421.865,2366.305C1420.575,2367.05 1418.987,2367.05 1417.698,2366.305L1250.665,2269.869C1249.376,2269.124 1248.582,2267.749 1248.582,2266.26L1248.582,1880.514C1248.582,1879.025 1249.376,1877.65 1250.665,1876.905L1327.931,1832.295L1250.665,1787.686C1249.376,1786.941 1248.582,1785.566 1248.582,1784.077L1248.582,1591.204C1248.582,1589.715 1249.376,1588.34 1250.665,1587.596L1417.698,1491.159C1418.987,1490.415 1420.575,1490.415 1421.865,1491.159L1588.898,1587.596C1590.187,1588.34 1590.981,1589.715 1590.981,1591.204L1590.981,1614.351L1944.227,1410.404C1945.516,1409.66 1947.104,1409.66 1948.393,1410.404L2115.427,1506.841C2116.738,1507.598 2117.509,1508.985 2117.51,1510.449L2117.51,1703.322C2117.51,1704.811 2116.716,1706.186 2115.427,1706.931L1950.477,1802.165L1950.477,2281.942C1950.477,2283.431 1949.683,2284.806 1948.393,2285.55L1781.36,2381.987C1780.071,2382.731 1778.483,2382.731 1777.194,2381.987L1610.161,2285.55C1608.871,2284.806 1608.077,2283.429 1608.077,2281.94L1608.211,1995.115L1590.981,1985.167ZM1582.648,1619.162L1582.648,1599.421L1582.648,1598.421L1423.948,1690.046L1423.948,1873.297L1423.948,1874.297L1441.118,1864.384L1441.49,1705.198C1441.202,1704.626 1441.044,1703.985 1441.044,1703.322C1441.044,1701.834 1441.838,1700.458 1443.127,1699.714L1582.648,1619.162ZM1441.098,1873.018L1421.865,1884.122C1420.575,1884.867 1418.987,1884.867 1417.698,1884.122L1336.265,1837.107L1261.082,1880.514L1419.781,1972.139L1494.099,1929.232L1443.127,1899.804C1441.835,1899.058 1441.041,1897.678 1441.044,1896.186L1441.098,1873.018ZM1502.432,1934.043L1423.948,1979.356L1423.948,2355.48L1582.648,2263.855L1582.648,1980.356L1502.432,1934.043ZM1590.981,1975.545L1608.077,1985.415L1608.077,1802.165L1449.811,1710.789L1449.383,1893.793L1590.981,1975.545ZM1590.981,1782.672L1612.244,1794.948L2105.01,1510.449L1946.31,1418.824L1582.648,1628.784L1453.544,1703.322L1590.981,1782.672ZM1777.194,1892.587C1778.483,1891.843 1780.071,1891.843 1781.36,1892.587C1782.65,1893.331 1783.444,1894.707 1783.444,1896.195L1783.444,2371.162L1942.143,2279.536L1942.143,1799.759C1942.143,1798.27 1942.938,1796.895 1944.227,1796.15L2109.177,1700.917L2109.177,1517.666L1616.411,1802.165L1616.411,1985.415L1777.194,1892.587ZM1775.11,2371.162L1775.11,1903.412L1616.544,1994.96L1616.412,2279.537L1775.11,2371.162ZM1415.615,2355.48L1415.615,1979.356L1256.915,1887.731L1256.915,2263.855L1415.615,2355.48ZM1261.082,1591.204L1419.781,1682.829L1578.481,1591.204L1419.781,1499.579L1261.082,1591.204ZM1415.615,1873.297L1415.615,1690.046L1256.915,1598.421L1256.915,1781.672L1415.615,1873.297Z"/>
            </g>
        </g>
    </g>
</svg>
