<?xml version="1.0" encoding="UTF-8" standalone="no"?>
<!DOCTYPE svg PUBLIC "-//W3C//DTD SVG 1.1//EN" "http://www.w3.org/Graphics/SVG/1.1/DTD/svg11.dtd">
<svg xmlns:xl="http://www.w3.org/1999/xlink" xmlns="http://www.w3.org/2000/svg" xmlns:dc="http://purl.org/dc/elements/1.1/" version="1.1" viewBox="-11.588583 0 295.7073 255.6181" width="295.7073" height="255.6181">
  <defs>
    <marker orient="auto" overflow="visible" markerUnits="strokeWidth" id="FilledArrow_Marker" stroke-linejoin="miter" stroke-miterlimit="10" viewBox="-1 -3 6 6" markerWidth="6" markerHeight="6" color="#414141">
      <g>
        <path d="M 4 0 L 0 -1.5 L 0 1.5 Z" fill="currentColor" stroke="currentColor" stroke-width="1"/>
      </g>
    </marker>
    <marker orient="auto" overflow="visible" markerUnits="strokeWidth" id="FilledArrow_Marker_2" stroke-linejoin="miter" stroke-miterlimit="10" viewBox="-9 -4 10 8" markerWidth="10" markerHeight="8" color="#414141">
      <g>
        <path d="M -8 0 L 0 3 L 0 -3 Z" fill="currentColor" stroke="currentColor" stroke-width="1"/>
      </g>
    </marker>
    <marker orient="auto" overflow="visible" markerUnits="strokeWidth" id="FilledArrow_Marker_3" stroke-linejoin="miter" stroke-miterlimit="10" viewBox="-5 -3 6 6" markerWidth="6" markerHeight="6" color="#414141">
      <g>
        <path d="M -4 0 L 0 1.5 L 0 -1.5 Z" fill="currentColor" stroke="currentColor" stroke-width="1"/>
      </g>
    </marker>
    <marker orient="auto" overflow="visible" markerUnits="strokeWidth" id="FilledArrow_Marker_4" stroke-linejoin="miter" stroke-miterlimit="10" viewBox="-1 -4 10 8" markerWidth="10" markerHeight="8" color="#414141">
      <g>
        <path d="M 8 0 L 0 -3 L 0 3 Z" fill="currentColor" stroke="currentColor" stroke-width="1"/>
      </g>
    </marker>
  </defs>
  <g id="Mechanisms" stroke="none" stroke-dasharray="none" fill="none" stroke-opacity="1" fill-opacity="1">
    <title>Mechanisms</title>
    <g id="Mechanisms_Layer_1">
      <title>Layer 1</title>
      <g id="Line_150">
        <line x1="70.86614" y1="59.52756" x2="70.86614" y2="226.77165" stroke="#878787" stroke-linecap="round" stroke-linejoin="round" stroke-width="1"/>
      </g>
      <g id="Line_112">
        <line x1="212.59842" y1="59.52756" x2="212.59842" y2="226.77165" stroke="#878787" stroke-linecap="round" stroke-linejoin="round" stroke-width="1"/>
      </g>
      <g id="Graphic_154">
        <path d="M 68.869776 161.5748 L 72.86251 161.5748 C 75.07165 161.5748 76.86251 163.36566 76.86251 165.5748 L 76.86251 211.43307 C 76.86251 213.6422 75.07165 215.43307 72.86251 215.43307 L 68.869776 215.43307 C 66.66064 215.43307 64.869776 213.6422 64.869776 211.43307 L 64.869776 165.5748 C 64.869776 163.36566 66.66064 161.5748 68.869776 161.5748 Z" fill="#c0bfbf"/>
      </g>
      <g id="Graphic_143">
        <path d="M 210.60206 144.56693 L 214.5948 144.56693 C 216.80393 144.56693 218.5948 146.35779 218.5948 148.56693 L 218.5948 157.41956 C 218.5948 159.6287 216.80393 161.41956 214.5948 161.41956 L 210.60206 161.41956 C 208.39292 161.41956 206.60206 159.6287 206.60206 157.41956 L 206.60206 148.56693 C 206.60206 146.35779 208.39292 144.56693 210.60206 144.56693 Z" fill="#c0bfbf"/>
      </g>
      <g id="Graphic_153">
        <path d="M 68.869776 133.3441 L 72.86251 133.3441 C 75.07165 133.3441 76.86251 135.13496 76.86251 137.3441 L 76.86251 140.2922 C 76.86251 142.50133 75.07165 144.2922 72.86251 144.2922 L 68.869776 144.2922 C 66.66064 144.2922 64.869776 142.50133 64.869776 140.2922 L 64.869776 137.3441 C 64.869776 135.13496 66.66064 133.3441 68.869776 133.3441 Z" fill="#c0bfbf"/>
      </g>
      <g id="Graphic_152">
        <path d="M 68.869776 85.03937 L 72.86251 85.03937 C 75.07165 85.03937 76.86251 86.83023 76.86251 89.03937 L 76.86251 98.04724 C 76.86251 100.25638 75.07165 102.04724 72.86251 102.04724 L 68.869776 102.04724 C 66.66064 102.04724 64.869776 100.25638 64.869776 98.04724 L 64.869776 89.03937 C 64.869776 86.83023 66.66064 85.03937 68.869776 85.03937 Z" fill="#c0bfbf"/>
      </g>
      <g id="Graphic_59">
        <path d="M 31.692308 28.346457 L 109.38583 28.346457 C 111.59497 28.346457 113.38583 30.137318 113.38583 32.346457 L 113.38583 55.52756 C 113.38583 57.7367 111.59497 59.52756 109.38583 59.52756 L 31.692308 59.52756 C 29.48317 59.52756 27.692308 57.7367 27.692308 55.52756 L 27.692308 32.346457 C 27.692308 30.137318 29.48317 28.346457 31.692308 28.346457 Z" fill="#414141"/>
        <text transform="translate(32.692308 36.437008)" fill="white">
          <tspan font-family="Lato" font-size="12" fill="white" x="20.74976" y="12" xml:space="preserve">SRTP2</tspan>
        </text>
      </g>
      <g id="Graphic_110">
        <path d="M 174.07874 28.346457 L 251.77226 28.346457 C 253.9814 28.346457 255.77226 30.137318 255.77226 32.346457 L 255.77226 55.52756 C 255.77226 57.7367 253.9814 59.52756 251.77226 59.52756 L 174.07874 59.52756 C 171.8696 59.52756 170.07874 57.7367 170.07874 55.52756 L 170.07874 32.346457 C 170.07874 30.137318 171.8696 28.346457 174.07874 28.346457 Z" fill="#c0bfbf"/>
        <text transform="translate(175.07874 36.437008)" fill="#414141">
          <tspan font-family="Lato" font-size="12" fill="#414141" x="8.81276" y="12" xml:space="preserve">Application</tspan>
        </text>
      </g>
      <g id="Line_151">
        <line x1="212.59842" y1="85" x2="76.76614" y2="85" marker-end="url(#FilledArrow_Marker)" stroke="#414141" stroke-linecap="butt" stroke-linejoin="round" stroke-width="1"/>
      </g>
      <g id="Graphic_114">
        <text transform="translate(75.86614 73.0315)" fill="#414141">
          <tspan font-family="Lato" font-size="8" fill="#414141" x="16.294142" y="8" xml:space="preserve">svPublishRequest(</tspan>
          <tspan font-family="Lato" font-size="8" fill="#0072a3" y="8" xml:space="preserve">SV Group</tspan>
          <tspan font-family="Lato" font-size="8" fill="#414141" y="8" xml:space="preserve">)</tspan>
        </text>
      </g>
      <g id="Line_115">
        <line x1="207.39851" y1="102.85" x2="70.86614" y2="102.04724" marker-start="url(#FilledArrow_Marker_2)" stroke="#414141" stroke-linecap="butt" stroke-linejoin="round" stroke-dasharray="1.0,1.0" stroke-width=".5"/>
      </g>
      <g id="Graphic_116">
        <text transform="translate(75.86614 90.03937)" fill="#414141">
          <tspan font-family="Lato" font-style="italic" font-size="8" fill="#414141" x="51.87614" y="8" xml:space="preserve">response</tspan>
        </text>
      </g>
      <g id="Graphic_117">
        <path d="M 22.007874 124.72441 L 51.69291 124.72441 C 54.45434 124.72441 56.69291 126.96298 56.69291 129.72441 L 56.69291 136.73228 C 56.69291 139.4937 54.45434 141.73228 51.69291 141.73228 L 22.007874 141.73228 C 19.24645 141.73228 17.007874 139.4937 17.007874 136.73228 L 17.007874 129.72441 C 17.007874 126.96298 19.24645 124.72441 22.007874 124.72441 Z" fill="#c0bfbf"/>
        <path d="M 22.007874 124.72441 L 51.69291 124.72441 C 54.45434 124.72441 56.69291 126.96298 56.69291 129.72441 L 56.69291 136.73228 C 56.69291 139.4937 54.45434 141.73228 51.69291 141.73228 L 22.007874 141.73228 C 19.24645 141.73228 17.007874 139.4937 17.007874 136.73228 L 17.007874 129.72441 C 17.007874 126.96298 19.24645 124.72441 22.007874 124.72441 Z" stroke="#878787" stroke-linecap="round" stroke-linejoin="round" stroke-width=".5"/>
        <text transform="translate(22.007874 128.22835)" fill="#414141">
          <tspan font-family="Lato" font-size="8" fill="#414141" x="2.0445198" y="8" xml:space="preserve">Beacon</tspan>
        </text>
      </g>
      <g id="Line_132">
        <line x1="206.69853" y1="145.36557" x2="70.86614" y2="144.56693" marker-start="url(#FilledArrow_Marker_3)" stroke="#414141" stroke-linecap="butt" stroke-linejoin="round" stroke-width="1"/>
      </g>
      <g id="Line_134">
        <line x1="65.96614" y1="133.22835" x2="56.69291" y2="133.22835" marker-start="url(#FilledArrow_Marker_3)" stroke="#414141" stroke-linecap="butt" stroke-linejoin="round" stroke-width="1"/>
      </g>
      <g id="Graphic_135">
        <text transform="translate(75.86614 132.55905)" fill="#414141">
          <tspan font-family="Lato" font-size="8" fill="#414141" x="13.130142" y="8" xml:space="preserve">svPublishIndication(</tspan>
          <tspan font-family="Lato" font-size="8" fill="#0072a3" y="8" xml:space="preserve">SV Group</tspan>
          <tspan font-family="Lato" font-size="8" fill="#414141" y="8" xml:space="preserve">)</tspan>
        </text>
      </g>
      <g id="Line_137">
        <line x1="212.59842" y1="162.40814" x2="76.06605" y2="161.60538" marker-end="url(#FilledArrow_Marker_4)" stroke="#414141" stroke-linecap="butt" stroke-linejoin="round" stroke-dasharray="1.0,1.0" stroke-width=".5"/>
      </g>
      <g id="Graphic_138">
        <text transform="translate(75.86614 149.56693)" fill="#414141">
          <tspan font-family="Lato" font-style="italic" font-size="8" fill="#414141" x="41.68614" y="8" xml:space="preserve">SV Group Data</tspan>
        </text>
      </g>
      <g id="Line_140">
        <line x1="70.86614" y1="215.43307" x2="61.59291" y2="215.43307" marker-end="url(#FilledArrow_Marker)" stroke="#414141" stroke-linecap="butt" stroke-linejoin="round" stroke-width="1"/>
      </g>
      <g id="Graphic_202">
        <path d="M 22.007874 206.92913 L 51.69291 206.92913 C 54.45434 206.92913 56.69291 209.1677 56.69291 211.92913 L 56.69291 218.937 C 56.69291 221.69843 54.45434 223.937 51.69291 223.937 L 22.007874 223.937 C 19.24645 223.937 17.007874 221.69843 17.007874 218.937 L 17.007874 211.92913 C 17.007874 209.1677 19.24645 206.92913 22.007874 206.92913 Z" fill="#c0bfbf"/>
        <path d="M 22.007874 206.92913 L 51.69291 206.92913 C 54.45434 206.92913 56.69291 209.1677 56.69291 211.92913 L 56.69291 218.937 C 56.69291 221.69843 54.45434 223.937 51.69291 223.937 L 22.007874 223.937 C 19.24645 223.937 17.007874 221.69843 17.007874 218.937 L 17.007874 211.92913 C 17.007874 209.1677 19.24645 206.92913 22.007874 206.92913 Z" stroke="#878787" stroke-linecap="round" stroke-linejoin="round" stroke-width=".5"/>
        <text transform="translate(22.007874 206.92913)" fill="#414141">
          <tspan font-family="Lato" font-size="7" fill="#414141" x="4.43702" y="7" xml:space="preserve">MPDU</tspan>
        </text>
      </g>
      <g id="Graphic_203">
        <path d="M 37.01575 215.43307 L 44.35433 215.43307 C 45.4589 215.43307 46.35433 216.3285 46.35433 217.43307 L 46.35433 221.937 C 46.35433 223.04158 45.4589 223.937 44.35433 223.937 L 37.01575 223.937 C 35.91118 223.937 35.015748 223.04158 35.015748 221.937 L 35.015748 217.43307 C 35.015748 216.3285 35.91118 215.43307 37.01575 215.43307 Z" fill="#414141"/>
        <path d="M 37.01575 215.43307 L 44.35433 215.43307 C 45.4589 215.43307 46.35433 216.3285 46.35433 217.43307 L 46.35433 221.937 C 46.35433 223.04158 45.4589 223.937 44.35433 223.937 L 37.01575 223.937 C 35.91118 223.937 35.015748 223.04158 35.015748 221.937 L 35.015748 217.43307 C 35.015748 216.3285 35.91118 215.43307 37.01575 215.43307 Z" stroke="#878787" stroke-linecap="round" stroke-linejoin="round" stroke-width=".5"/>
        <text transform="translate(35.015748 215.68504)" fill="white">
          <tspan font-family="Lato" font-size="7" fill="white" x="1.5392915" y="7" xml:space="preserve">SV</tspan>
        </text>
      </g>
    </g>
  </g>
</svg>
