<?xml version="1.0" encoding="UTF-8" standalone="no"?>
<!DOCTYPE svg PUBLIC "-//W3C//DTD SVG 1.1//EN" "http://www.w3.org/Graphics/SVG/1.1/DTD/svg11.dtd">
<svg xmlns:xl="http://www.w3.org/1999/xlink" xmlns="http://www.w3.org/2000/svg" xmlns:dc="http://purl.org/dc/elements/1.1/" version="1.1" viewBox="28.346457 28.346457 459.2126 221.35236" width="459.2126" height="221.35236">
  <defs/>
  <g id="Topology" stroke="none" stroke-dasharray="none" fill="none" stroke-opacity="1" fill-opacity="1">
    <title>Topology</title>
    <g id="Topology_Layer_1">
      <title>Layer 1</title>
      <g id="Graphic_82">
        <path d="M 74.19685 170.07874 L 299.97638 170.07874 C 304.94694 170.07874 308.97638 174.10818 308.97638 179.07874 L 308.97638 212.10236 C 308.97638 217.07292 304.94694 221.10236 299.97638 221.10236 L 74.19685 221.10236 C 69.22629 221.10236 65.19685 217.07292 65.19685 212.10236 L 65.19685 179.07874 C 65.19685 174.10818 69.22629 170.07874 74.19685 170.07874 Z" fill="#c0bfbf"/>
        <path d="M 74.19685 170.07874 L 299.97638 170.07874 C 304.94694 170.07874 308.97638 174.10818 308.97638 179.07874 L 308.97638 212.10236 C 308.97638 217.07292 304.94694 221.10236 299.97638 221.10236 L 74.19685 221.10236 C 69.22629 221.10236 65.19685 217.07292 65.19685 212.10236 L 65.19685 179.07874 C 65.19685 174.10818 69.22629 170.07874 74.19685 170.07874 Z" stroke="#878787" stroke-linecap="round" stroke-linejoin="round" stroke-width=".5"/>
        <text transform="translate(70.19685 203.10236)" fill="#414141">
          <tspan font-family="Lato" font-size="11" fill="#414141" x="79.08826" y="11" xml:space="preserve">Ethernet Switch </tspan>
        </text>
      </g>
      <g id="Graphic_85">
        <path d="M 82.25002 192.7559 C 82.44494 193.65622 83.24606 194.3307 84.20472 194.3307 L 85.87402 194.3307 C 86.83268 194.3307 87.6338 193.65622 87.82872 192.7559 L 91.54331 192.7559 C 92.64788 192.7559 93.54331 191.86047 93.54331 190.7559 L 93.54331 180.58268 C 93.54331 179.4781 92.64788 178.58268 91.54331 178.58268 L 78.53543 178.58268 C 77.43086 178.58268 76.53543 179.4781 76.53543 180.58268 L 76.53543 190.7559 C 76.53543 191.86047 77.43086 192.7559 78.53543 192.7559 Z" fill="#0072a3"/>
        <path d="M 82.25002 192.7559 C 82.44494 193.65622 83.24606 194.3307 84.20472 194.3307 L 85.87402 194.3307 C 86.83268 194.3307 87.6338 193.65622 87.82872 192.7559 L 91.54331 192.7559 C 92.64788 192.7559 93.54331 191.86047 93.54331 190.7559 L 93.54331 180.58268 C 93.54331 179.4781 92.64788 178.58268 91.54331 178.58268 L 78.53543 178.58268 C 77.43086 178.58268 76.53543 179.4781 76.53543 180.58268 L 76.53543 190.7559 C 76.53543 191.86047 77.43086 192.7559 78.53543 192.7559 Z" stroke="#414141" stroke-linecap="round" stroke-linejoin="round" stroke-width="2"/>
      </g>
      <g id="Graphic_86">
        <path d="M 104.92718 192.7559 C 105.1221 193.65622 105.92323 194.3307 106.88189 194.3307 L 108.55118 194.3307 C 109.50984 194.3307 110.31097 193.65622 110.50589 192.7559 L 114.22047 192.7559 C 115.32504 192.7559 116.22047 191.86047 116.22047 190.7559 L 116.22047 180.58268 C 116.22047 179.4781 115.32504 178.58268 114.22047 178.58268 L 101.2126 178.58268 C 100.10803 178.58268 99.2126 179.4781 99.2126 180.58268 L 99.2126 190.7559 C 99.2126 191.86047 100.10803 192.7559 101.2126 192.7559 Z" fill="#0072a3"/>
        <path d="M 104.92718 192.7559 C 105.1221 193.65622 105.92323 194.3307 106.88189 194.3307 L 108.55118 194.3307 C 109.50984 194.3307 110.31097 193.65622 110.50589 192.7559 L 114.22047 192.7559 C 115.32504 192.7559 116.22047 191.86047 116.22047 190.7559 L 116.22047 180.58268 C 116.22047 179.4781 115.32504 178.58268 114.22047 178.58268 L 101.2126 178.58268 C 100.10803 178.58268 99.2126 179.4781 99.2126 180.58268 L 99.2126 190.7559 C 99.2126 191.86047 100.10803 192.7559 101.2126 192.7559 Z" stroke="#414141" stroke-linecap="round" stroke-linejoin="round" stroke-width="2"/>
      </g>
      <g id="Graphic_87">
        <path d="M 127.60435 192.7559 C 127.79927 193.65622 128.6004 194.3307 129.55905 194.3307 L 131.22835 194.3307 C 132.187 194.3307 132.98813 193.65622 133.18305 192.7559 L 136.89764 192.7559 C 138.0022 192.7559 138.89764 191.86047 138.89764 190.7559 L 138.89764 180.58268 C 138.89764 179.4781 138.0022 178.58268 136.89764 178.58268 L 123.88976 178.58268 C 122.7852 178.58268 121.88976 179.4781 121.88976 180.58268 L 121.88976 190.7559 C 121.88976 191.86047 122.7852 192.7559 123.88976 192.7559 Z" fill="#0072a3"/>
        <path d="M 127.60435 192.7559 C 127.79927 193.65622 128.6004 194.3307 129.55905 194.3307 L 131.22835 194.3307 C 132.187 194.3307 132.98813 193.65622 133.18305 192.7559 L 136.89764 192.7559 C 138.0022 192.7559 138.89764 191.86047 138.89764 190.7559 L 138.89764 180.58268 C 138.89764 179.4781 138.0022 178.58268 136.89764 178.58268 L 123.88976 178.58268 C 122.7852 178.58268 121.88976 179.4781 121.88976 180.58268 L 121.88976 190.7559 C 121.88976 191.86047 122.7852 192.7559 123.88976 192.7559 Z" stroke="#414141" stroke-linecap="round" stroke-linejoin="round" stroke-width="2"/>
      </g>
      <g id="Graphic_88">
        <path d="M 150.28151 192.7559 C 150.47643 193.65622 151.27756 194.3307 152.23622 194.3307 L 153.90551 194.3307 C 154.86417 194.3307 155.6653 193.65622 155.86022 192.7559 L 159.5748 192.7559 C 160.67937 192.7559 161.5748 191.86047 161.5748 190.7559 L 161.5748 180.58268 C 161.5748 179.4781 160.67937 178.58268 159.5748 178.58268 L 146.56693 178.58268 C 145.46236 178.58268 144.56693 179.4781 144.56693 180.58268 L 144.56693 190.7559 C 144.56693 191.86047 145.46236 192.7559 146.56693 192.7559 Z" fill="#0072a3"/>
        <path d="M 150.28151 192.7559 C 150.47643 193.65622 151.27756 194.3307 152.23622 194.3307 L 153.90551 194.3307 C 154.86417 194.3307 155.6653 193.65622 155.86022 192.7559 L 159.5748 192.7559 C 160.67937 192.7559 161.5748 191.86047 161.5748 190.7559 L 161.5748 180.58268 C 161.5748 179.4781 160.67937 178.58268 159.5748 178.58268 L 146.56693 178.58268 C 145.46236 178.58268 144.56693 179.4781 144.56693 180.58268 L 144.56693 190.7559 C 144.56693 191.86047 145.46236 192.7559 146.56693 192.7559 Z" stroke="#414141" stroke-linecap="round" stroke-linejoin="round" stroke-width="2"/>
      </g>
      <g id="Graphic_89">
        <path d="M 172.95868 192.7559 C 173.1536 193.65622 173.95472 194.3307 174.91338 194.3307 L 176.58268 194.3307 C 177.54134 194.3307 178.34246 193.65622 178.53738 192.7559 L 182.25197 192.7559 C 183.35654 192.7559 184.25197 191.86047 184.25197 190.7559 L 184.25197 180.58268 C 184.25197 179.4781 183.35654 178.58268 182.25197 178.58268 L 169.2441 178.58268 C 168.13952 178.58268 167.2441 179.4781 167.2441 180.58268 L 167.2441 190.7559 C 167.2441 191.86047 168.13952 192.7559 169.2441 192.7559 Z" fill="#0072a3"/>
        <path d="M 172.95868 192.7559 C 173.1536 193.65622 173.95472 194.3307 174.91338 194.3307 L 176.58268 194.3307 C 177.54134 194.3307 178.34246 193.65622 178.53738 192.7559 L 182.25197 192.7559 C 183.35654 192.7559 184.25197 191.86047 184.25197 190.7559 L 184.25197 180.58268 C 184.25197 179.4781 183.35654 178.58268 182.25197 178.58268 L 169.2441 178.58268 C 168.13952 178.58268 167.2441 179.4781 167.2441 180.58268 L 167.2441 190.7559 C 167.2441 191.86047 168.13952 192.7559 169.2441 192.7559 Z" stroke="#414141" stroke-linecap="round" stroke-linejoin="round" stroke-width="2"/>
      </g>
      <g id="Graphic_90">
        <path d="M 195.63584 192.7559 C 195.83076 193.65622 196.6319 194.3307 197.59055 194.3307 L 199.25984 194.3307 C 200.2185 194.3307 201.01963 193.65622 201.21455 192.7559 L 204.92913 192.7559 C 206.0337 192.7559 206.92913 191.86047 206.92913 190.7559 L 206.92913 180.58268 C 206.92913 179.4781 206.0337 178.58268 204.92913 178.58268 L 191.92126 178.58268 C 190.8167 178.58268 189.92126 179.4781 189.92126 180.58268 L 189.92126 190.7559 C 189.92126 191.86047 190.8167 192.7559 191.92126 192.7559 Z" fill="#0072a3"/>
        <path d="M 195.63584 192.7559 C 195.83076 193.65622 196.6319 194.3307 197.59055 194.3307 L 199.25984 194.3307 C 200.2185 194.3307 201.01963 193.65622 201.21455 192.7559 L 204.92913 192.7559 C 206.0337 192.7559 206.92913 191.86047 206.92913 190.7559 L 206.92913 180.58268 C 206.92913 179.4781 206.0337 178.58268 204.92913 178.58268 L 191.92126 178.58268 C 190.8167 178.58268 189.92126 179.4781 189.92126 180.58268 L 189.92126 190.7559 C 189.92126 191.86047 190.8167 192.7559 191.92126 192.7559 Z" stroke="#414141" stroke-linecap="round" stroke-linejoin="round" stroke-width="2"/>
      </g>
      <g id="Graphic_91">
        <path d="M 218.313 192.7559 C 218.50793 193.65622 219.30905 194.3307 220.26772 194.3307 L 221.937 194.3307 C 222.89567 194.3307 223.6968 193.65622 223.89171 192.7559 L 227.6063 192.7559 C 228.71087 192.7559 229.6063 191.86047 229.6063 190.7559 L 229.6063 180.58268 C 229.6063 179.4781 228.71087 178.58268 227.6063 178.58268 L 214.59842 178.58268 C 213.49385 178.58268 212.59842 179.4781 212.59842 180.58268 L 212.59842 190.7559 C 212.59842 191.86047 213.49385 192.7559 214.59842 192.7559 Z" fill="#414141"/>
        <path d="M 218.313 192.7559 C 218.50793 193.65622 219.30905 194.3307 220.26772 194.3307 L 221.937 194.3307 C 222.89567 194.3307 223.6968 193.65622 223.89171 192.7559 L 227.6063 192.7559 C 228.71087 192.7559 229.6063 191.86047 229.6063 190.7559 L 229.6063 180.58268 C 229.6063 179.4781 228.71087 178.58268 227.6063 178.58268 L 214.59842 178.58268 C 213.49385 178.58268 212.59842 179.4781 212.59842 180.58268 L 212.59842 190.7559 C 212.59842 191.86047 213.49385 192.7559 214.59842 192.7559 Z" stroke="#414141" stroke-linecap="round" stroke-linejoin="round" stroke-width="2"/>
      </g>
      <g id="Graphic_92">
        <path d="M 240.99017 192.7559 C 241.1851 193.65622 241.98622 194.3307 242.94488 194.3307 L 244.61417 194.3307 C 245.57283 194.3307 246.37396 193.65622 246.56888 192.7559 L 250.28346 192.7559 C 251.38803 192.7559 252.28346 191.86047 252.28346 190.7559 L 252.28346 180.58268 C 252.28346 179.4781 251.38803 178.58268 250.28346 178.58268 L 237.2756 178.58268 C 236.17102 178.58268 235.2756 179.4781 235.2756 180.58268 L 235.2756 190.7559 C 235.2756 191.86047 236.17102 192.7559 237.2756 192.7559 Z" fill="#414141"/>
        <path d="M 240.99017 192.7559 C 241.1851 193.65622 241.98622 194.3307 242.94488 194.3307 L 244.61417 194.3307 C 245.57283 194.3307 246.37396 193.65622 246.56888 192.7559 L 250.28346 192.7559 C 251.38803 192.7559 252.28346 191.86047 252.28346 190.7559 L 252.28346 180.58268 C 252.28346 179.4781 251.38803 178.58268 250.28346 178.58268 L 237.2756 178.58268 C 236.17102 178.58268 235.2756 179.4781 235.2756 180.58268 L 235.2756 190.7559 C 235.2756 191.86047 236.17102 192.7559 237.2756 192.7559 Z" stroke="#414141" stroke-linecap="round" stroke-linejoin="round" stroke-width="2"/>
      </g>
      <g id="Graphic_93">
        <path d="M 263.66734 192.7559 C 263.86226 193.65622 264.6634 194.3307 265.62205 194.3307 L 267.29134 194.3307 C 268.25 194.3307 269.05112 193.65622 269.24605 192.7559 L 272.96063 192.7559 C 274.0652 192.7559 274.96063 191.86047 274.96063 190.7559 L 274.96063 180.58268 C 274.96063 179.4781 274.0652 178.58268 272.96063 178.58268 L 259.95275 178.58268 C 258.8482 178.58268 257.95275 179.4781 257.95275 180.58268 L 257.95275 190.7559 C 257.95275 191.86047 258.8482 192.7559 259.95275 192.7559 Z" fill="#414141"/>
        <path d="M 263.66734 192.7559 C 263.86226 193.65622 264.6634 194.3307 265.62205 194.3307 L 267.29134 194.3307 C 268.25 194.3307 269.05112 193.65622 269.24605 192.7559 L 272.96063 192.7559 C 274.0652 192.7559 274.96063 191.86047 274.96063 190.7559 L 274.96063 180.58268 C 274.96063 179.4781 274.0652 178.58268 272.96063 178.58268 L 259.95275 178.58268 C 258.8482 178.58268 257.95275 179.4781 257.95275 180.58268 L 257.95275 190.7559 C 257.95275 191.86047 258.8482 192.7559 259.95275 192.7559 Z" stroke="#414141" stroke-linecap="round" stroke-linejoin="round" stroke-width="2"/>
      </g>
      <g id="Graphic_94">
        <path d="M 286.3445 192.7559 C 286.53943 193.65622 287.34055 194.3307 288.2992 194.3307 L 289.9685 194.3307 C 290.92716 194.3307 291.7283 193.65622 291.9232 192.7559 L 295.6378 192.7559 C 296.74236 192.7559 297.6378 191.86047 297.6378 190.7559 L 297.6378 180.58268 C 297.6378 179.4781 296.74236 178.58268 295.6378 178.58268 L 282.62992 178.58268 C 281.52535 178.58268 280.62992 179.4781 280.62992 180.58268 L 280.62992 190.7559 C 280.62992 191.86047 281.52535 192.7559 282.62992 192.7559 Z" fill="#414141"/>
        <path d="M 286.3445 192.7559 C 286.53943 193.65622 287.34055 194.3307 288.2992 194.3307 L 289.9685 194.3307 C 290.92716 194.3307 291.7283 193.65622 291.9232 192.7559 L 295.6378 192.7559 C 296.74236 192.7559 297.6378 191.86047 297.6378 190.7559 L 297.6378 180.58268 C 297.6378 179.4781 296.74236 178.58268 295.6378 178.58268 L 282.62992 178.58268 C 281.52535 178.58268 280.62992 179.4781 280.62992 180.58268 L 280.62992 190.7559 C 280.62992 191.86047 281.52535 192.7559 282.62992 192.7559 Z" stroke="#414141" stroke-linecap="round" stroke-linejoin="round" stroke-width="2"/>
      </g>
      <g id="Line_81">
        <line x1="85.03937" y1="90.70866" x2="85.03937" y2="184.25197" stroke="#0072a3" stroke-linecap="round" stroke-linejoin="round" stroke-width="5"/>
      </g>
      <g id="Line_95">
        <path d="M 172.91338 85.03937 C 169.13424 90.70809 171.49507 97.32331 161.5748 102.04724 C 151.65453 106.77118 122.3613 99.68641 113.38583 113.38583 C 104.41035 127.08524 109.60611 160.63228 107.71653 184.25197" stroke="#0072a3" stroke-linecap="butt" stroke-linejoin="round" stroke-width="5"/>
      </g>
      <g id="Line_96">
        <path d="M 238.11023 85.03937 C 232.4415 93.54246 236.69135 104.88246 221.10236 110.55118 C 205.51337 116.2199 159.68353 106.77288 144.56693 119.05512 C 129.45033 131.33735 135.11764 162.52186 130.3937 184.25197" stroke="#0072a3" stroke-linecap="butt" stroke-linejoin="round" stroke-width="5"/>
      </g>
      <g id="Line_97">
        <path d="M 303.3071 85.03937 C 295.7488 96.37682 303.3048 111.96921 280.62992 119.05512 C 257.95502 126.14102 188.5018 116.694 167.2441 127.55905 C 145.98638 138.42411 157.7948 165.35622 153.07087 184.25197" stroke="#0072a3" stroke-linecap="butt" stroke-linejoin="round" stroke-width="5"/>
      </g>
      <g id="Line_98">
        <path d="M 368.50393 85.03937 C 358.11127 100.15597 367.08364 121.89061 337.32283 130.3937 C 307.56203 138.89679 216.8477 127.08751 189.92126 136.06299 C 162.99482 145.03847 180.47197 168.19058 175.74803 184.25197" stroke="#0072a3" stroke-linecap="butt" stroke-linejoin="round" stroke-width="5"/>
      </g>
      <g id="Line_99">
        <path d="M 430.86614 79.37008 C 421.41827 100.1554 435.11485 130.39483 402.5197 141.73228 C 369.9245 153.06973 269.28793 140.31567 235.2756 147.40157 C 201.26324 154.48748 210.70743 171.96973 198.4252 184.25197" stroke="#0072a3" stroke-linecap="butt" stroke-linejoin="round" stroke-width="5"/>
      </g>
      <g id="Graphic_57">
        <path d="M 65.69291 56.69291 L 104.38583 56.69291 C 109.35639 56.69291 113.38583 60.72235 113.38583 65.69291 L 113.38583 81.70866 C 113.38583 86.67922 109.35639 90.70866 104.38583 90.70866 L 65.69291 90.70866 C 60.72235 90.70866 56.69291 86.67922 56.69291 81.70866 L 56.69291 65.69291 C 56.69291 60.72235 60.72235 56.69291 65.69291 56.69291 Z" fill="#414141"/>
        <text transform="translate(61.69291 64.20079)" fill="white">
          <tspan font-family="Lato" font-size="16" fill="white" x="10.042457" y="16" xml:space="preserve">MN</tspan>
        </text>
      </g>
      <g id="Graphic_58">
        <path d="M 150.73228 56.69291 L 189.4252 56.69291 C 194.39576 56.69291 198.4252 60.72235 198.4252 65.69291 L 198.4252 81.70866 C 198.4252 86.67922 194.39576 90.70866 189.4252 90.70866 L 150.73228 90.70866 C 145.76172 90.70866 141.73228 86.67922 141.73228 81.70866 L 141.73228 65.69291 C 141.73228 60.72235 145.76172 56.69291 150.73228 56.69291 Z" fill="#414141"/>
        <text transform="translate(146.73228 64.20079)" fill="white">
          <tspan font-family="Lato" font-size="16" fill="white" x="11.898457" y="16" xml:space="preserve">CN</tspan>
        </text>
      </g>
      <g id="Graphic_59">
        <path d="M 215.92913 56.69291 L 254.62205 56.69291 C 259.5926 56.69291 263.62205 60.72235 263.62205 65.69291 L 263.62205 81.70866 C 263.62205 86.67922 259.5926 90.70866 254.62205 90.70866 L 215.92913 90.70866 C 210.95857 90.70866 206.92913 86.67922 206.92913 81.70866 L 206.92913 65.69291 C 206.92913 60.72235 210.95857 56.69291 215.92913 56.69291 Z" fill="#414141"/>
        <text transform="translate(211.92913 64.20079)" fill="white">
          <tspan font-family="Lato" font-size="16" fill="white" x="11.898457" y="16" xml:space="preserve">CN</tspan>
        </text>
      </g>
      <g id="Graphic_60">
        <path d="M 281.12598 56.69291 L 319.8189 56.69291 C 324.78946 56.69291 328.8189 60.72235 328.8189 65.69291 L 328.8189 81.70866 C 328.8189 86.67922 324.78946 90.70866 319.8189 90.70866 L 281.12598 90.70866 C 276.15542 90.70866 272.12598 86.67922 272.12598 81.70866 L 272.12598 65.69291 C 272.12598 60.72235 276.15542 56.69291 281.12598 56.69291 Z" fill="#414141"/>
        <text transform="translate(277.12598 64.20079)" fill="white">
          <tspan font-family="Lato" font-size="16" fill="white" x="11.898457" y="16" xml:space="preserve">CN</tspan>
        </text>
      </g>
      <g id="Graphic_61">
        <path d="M 346.32283 56.69291 L 385.01575 56.69291 C 389.9863 56.69291 394.01575 60.72235 394.01575 65.69291 L 394.01575 81.70866 C 394.01575 86.67922 389.9863 90.70866 385.01575 90.70866 L 346.32283 90.70866 C 341.35227 90.70866 337.32283 86.67922 337.32283 81.70866 L 337.32283 65.69291 C 337.32283 60.72235 341.35227 56.69291 346.32283 56.69291 Z" fill="#414141"/>
        <text transform="translate(342.32283 64.20079)" fill="white">
          <tspan font-family="Lato" font-size="16" fill="white" x="11.898457" y="16" xml:space="preserve">CN</tspan>
        </text>
      </g>
      <g id="Graphic_62">
        <path d="M 411.5197 56.69291 L 450.2126 56.69291 C 455.18316 56.69291 459.2126 60.72235 459.2126 65.69291 L 459.2126 81.70866 C 459.2126 86.67922 455.18316 90.70866 450.2126 90.70866 L 411.5197 90.70866 C 406.5491 90.70866 402.5197 86.67922 402.5197 81.70866 L 402.5197 65.69291 C 402.5197 60.72235 406.5491 56.69291 411.5197 56.69291 Z" fill="#414141"/>
        <text transform="translate(407.5197 64.20079)" fill="white">
          <tspan font-family="Lato" font-size="16" fill="white" x="11.898457" y="16" xml:space="preserve">CN</tspan>
        </text>
      </g>
    </g>
  </g>
</svg>
