<?xml version="1.0" encoding="UTF-8" standalone="no"?>
<!DOCTYPE svg PUBLIC "-//W3C//DTD SVG 1.1//EN" "http://www.w3.org/Graphics/SVG/1.1/DTD/svg11.dtd">
<svg xmlns:xl="http://www.w3.org/1999/xlink" xmlns="http://www.w3.org/2000/svg" xmlns:dc="http://purl.org/dc/elements/1.1/" version="1.1" viewBox="232.44094 0 330.47304 198.9252" width="330.47304" height="198.9252">
  <defs>
    <marker orient="auto" overflow="visible" markerUnits="strokeWidth" id="FilledArrow_Marker" stroke-linejoin="miter" stroke-miterlimit="10" viewBox="-1 -3 6 6" markerWidth="6" markerHeight="6" color="#414141">
      <g>
        <path d="M 4 0 L 0 -1.5 L 0 1.5 Z" fill="currentColor" stroke="currentColor" stroke-width="1"/>
      </g>
    </marker>
    <marker orient="auto" overflow="visible" markerUnits="strokeWidth" id="FilledArrow_Marker_2" stroke-linejoin="miter" stroke-miterlimit="10" viewBox="-5 -3 6 6" markerWidth="6" markerHeight="6" color="#414141">
      <g>
        <path d="M -4 0 L 0 1.5 L 0 -1.5 Z" fill="currentColor" stroke="currentColor" stroke-width="1"/>
      </g>
    </marker>
  </defs>
  <g id="Mechanisms" stroke="none" stroke-dasharray="none" fill="none" stroke-opacity="1" fill-opacity="1">
    <title>Mechanisms</title>
    <g id="Mechanisms_Layer_1">
      <title>Layer 1</title>
      <g id="Line_226">
        <line x1="325.98425" y1="59.52756" x2="325.98425" y2="170.07874" stroke="#878787" stroke-linecap="round" stroke-linejoin="round" stroke-width="1"/>
      </g>
      <g id="Line_227">
        <line x1="490.3937" y1="59.52756" x2="490.3937" y2="170.07874" stroke="#878787" stroke-linecap="round" stroke-linejoin="round" stroke-width="1"/>
      </g>
      <g id="Graphic_229">
        <path d="M 323.9879 113.08775 L 327.9806 113.08775 C 330.18975 113.08775 331.9806 114.87861 331.9806 117.08775 L 331.9806 151.90551 C 331.9806 154.11465 330.18975 155.90551 327.9806 155.90551 L 323.9879 155.90551 C 321.77875 155.90551 319.9879 154.11465 319.9879 151.90551 L 319.9879 117.08775 C 319.9879 114.87861 321.77875 113.08775 323.9879 113.08775 Z" fill="#c0bfbf"/>
      </g>
      <g id="Graphic_230">
        <path d="M 323.9879 84.89928 L 327.9806 84.89928 C 330.18975 84.89928 331.9806 86.69014 331.9806 88.89928 L 331.9806 95.43123 C 331.9806 97.64037 330.18975 99.43123 327.9806 99.43123 L 323.9879 99.43123 C 321.77875 99.43123 319.9879 97.64037 319.9879 95.43123 L 319.9879 88.89928 C 319.9879 86.69014 321.77875 84.89928 323.9879 84.89928 Z" fill="#c0bfbf"/>
      </g>
      <g id="Graphic_231">
        <path d="M 287.8104 28.346457 L 365.50393 28.346457 C 367.71307 28.346457 369.50393 30.137318 369.50393 32.346457 L 369.50393 55.52756 C 369.50393 57.7367 367.71307 59.52756 365.50393 59.52756 L 287.8104 59.52756 C 285.60128 59.52756 283.8104 57.7367 283.8104 55.52756 L 283.8104 32.346457 C 283.8104 30.137318 285.60128 28.346457 287.8104 28.346457 Z" fill="#414141"/>
        <text transform="translate(288.8104 36.437008)" fill="white">
          <tspan font-family="Lato" font-size="12" fill="white" x="20.74976" y="12" xml:space="preserve">SRTP2</tspan>
        </text>
      </g>
      <g id="Graphic_232">
        <path d="M 452.874 28.346457 L 530.56753 28.346457 C 532.7767 28.346457 534.5675 30.137318 534.5675 32.346457 L 534.5675 55.52756 C 534.5675 57.7367 532.7767 59.52756 530.56753 59.52756 L 452.874 59.52756 C 450.6649 59.52756 448.874 57.7367 448.874 55.52756 L 448.874 32.346457 C 448.874 30.137318 450.6649 28.346457 452.874 28.346457 Z" fill="#c0bfbf"/>
        <text transform="translate(453.874 36.437008)" fill="#414141">
          <tspan font-family="Lato" font-size="12" fill="#414141" x="8.81276" y="12" xml:space="preserve">Application</tspan>
        </text>
      </g>
      <g id="Line_233">
        <line x1="490.3937" y1="85.03937" x2="331.88425" y2="85.00141" marker-end="url(#FilledArrow_Marker)" stroke="#414141" stroke-linecap="butt" stroke-linejoin="round" stroke-width="1"/>
      </g>
      <g id="Graphic_234">
        <text transform="translate(330.98425 73.0315)" fill="#414141">
          <tspan font-family="Lato" font-size="8" fill="#414141" x="7.508727" y="8" xml:space="preserve">evPublishRequest(</tspan>
          <tspan font-family="Lato" font-size="8" fill="#0072a3" y="8" xml:space="preserve">Event ID</tspan>
          <tspan font-family="Lato" font-size="8" fill="#414141" y="8" xml:space="preserve">,</tspan>
          <tspan font-family="Lato" font-size="8" fill="#0072a3" y="8" xml:space="preserve"> Event Data</tspan>
          <tspan font-family="Lato" font-size="8" fill="#414141" y="8" xml:space="preserve">)</tspan>
        </text>
      </g>
      <g id="Graphic_242">
        <path d="M 276.12598 104.88189 L 305.81102 104.88189 C 308.57245 104.88189 310.81102 107.12047 310.81102 109.88189 L 310.81102 116.88976 C 310.81102 119.65119 308.57245 121.88976 305.81102 121.88976 L 276.12598 121.88976 C 273.36456 121.88976 271.12598 119.65119 271.12598 116.88976 L 271.12598 109.88189 C 271.12598 107.12047 273.36456 104.88189 276.12598 104.88189 Z" fill="#c0bfbf"/>
        <path d="M 276.12598 104.88189 L 305.81102 104.88189 C 308.57245 104.88189 310.81102 107.12047 310.81102 109.88189 L 310.81102 116.88976 C 310.81102 119.65119 308.57245 121.88976 305.81102 121.88976 L 276.12598 121.88976 C 273.36456 121.88976 271.12598 119.65119 271.12598 116.88976 L 271.12598 109.88189 C 271.12598 107.12047 273.36456 104.88189 276.12598 104.88189 Z" stroke="#878787" stroke-linecap="round" stroke-linejoin="round" stroke-width=".5"/>
        <text transform="translate(276.12598 108.38583)" fill="#414141">
          <tspan font-family="Lato" font-size="8" fill="#414141" x="2.0445198" y="8" xml:space="preserve">Beacon</tspan>
        </text>
      </g>
      <g id="Line_243">
        <line x1="320.08425" y1="113.38583" x2="310.81102" y2="113.38583" marker-start="url(#FilledArrow_Marker_2)" stroke="#414141" stroke-linecap="butt" stroke-linejoin="round" stroke-width="1"/>
      </g>
      <g id="Line_247">
        <line x1="319.9879" y1="150.23622" x2="316.71102" y2="150.23622" marker-end="url(#FilledArrow_Marker)" stroke="#414141" stroke-linecap="butt" stroke-linejoin="round" stroke-width="1"/>
      </g>
      <g id="Graphic_248">
        <path d="M 277.12598 141.73228 L 306.81102 141.73228 C 309.57245 141.73228 311.81102 143.97086 311.81102 146.73228 L 311.81102 153.74016 C 311.81102 156.50158 309.57245 158.74016 306.81102 158.74016 L 277.12598 158.74016 C 274.36456 158.74016 272.12598 156.50158 272.12598 153.74016 L 272.12598 146.73228 C 272.12598 143.97086 274.36456 141.73228 277.12598 141.73228 Z" fill="#c0bfbf"/>
        <path d="M 277.12598 141.73228 L 306.81102 141.73228 C 309.57245 141.73228 311.81102 143.97086 311.81102 146.73228 L 311.81102 153.74016 C 311.81102 156.50158 309.57245 158.74016 306.81102 158.74016 L 277.12598 158.74016 C 274.36456 158.74016 272.12598 156.50158 272.12598 153.74016 L 272.12598 146.73228 C 272.12598 143.97086 274.36456 141.73228 277.12598 141.73228 Z" stroke="#878787" stroke-linecap="round" stroke-linejoin="round" stroke-width=".5"/>
        <text transform="translate(277.12598 141.73228)" fill="#414141">
          <tspan font-family="Lato" font-size="7" fill="#414141" x="4.43702" y="7" xml:space="preserve">MPDU</tspan>
        </text>
      </g>
      <g id="Graphic_249">
        <path d="M 292.13386 150.23622 L 299.47244 150.23622 C 300.577 150.23622 301.47244 151.13165 301.47244 152.23622 L 301.47244 156.74016 C 301.47244 157.84473 300.577 158.74016 299.47244 158.74016 L 292.13386 158.74016 C 291.0293 158.74016 290.13386 157.84473 290.13386 156.74016 L 290.13386 152.23622 C 290.13386 151.13165 291.0293 150.23622 292.13386 150.23622 Z" fill="#414141"/>
        <path d="M 292.13386 150.23622 L 299.47244 150.23622 C 300.577 150.23622 301.47244 151.13165 301.47244 152.23622 L 301.47244 156.74016 C 301.47244 157.84473 300.577 158.74016 299.47244 158.74016 L 292.13386 158.74016 C 291.0293 158.74016 290.13386 157.84473 290.13386 156.74016 L 290.13386 152.23622 C 290.13386 151.13165 291.0293 150.23622 292.13386 150.23622 Z" stroke="#878787" stroke-linecap="round" stroke-linejoin="round" stroke-width=".5"/>
        <text transform="translate(290.13386 150.48819)" fill="white">
          <tspan font-family="Lato" font-size="7" fill="white" x="1.3450415" y="7" xml:space="preserve">EV</tspan>
        </text>
      </g>
      <g id="Graphic_250">
        <text transform="translate(265.7874 86.4626)" fill="#414141">
          <tspan font-family="Lato" font-style="italic" font-size="7" fill="#414141" x="7.7267055" y="7" xml:space="preserve">(Enqueue event)</tspan>
        </text>
      </g>
      <g id="Graphic_251">
        <text transform="translate(336.65354 126.88976)" fill="#414141">
          <tspan font-family="Lato" font-style="italic" font-size="7" fill="#414141" x="0" y="7" xml:space="preserve">(Dequeue event)</tspan>
        </text>
      </g>
    </g>
  </g>
</svg>
