<?xml version="1.0" encoding="UTF-8" standalone="no"?>
<!DOCTYPE svg PUBLIC "-//W3C//DTD SVG 1.1//EN" "http://www.w3.org/Graphics/SVG/1.1/DTD/svg11.dtd">
<svg xmlns:xl="http://www.w3.org/1999/xlink" xmlns="http://www.w3.org/2000/svg" xmlns:dc="http://purl.org/dc/elements/1.1/" version="1.1" viewBox="242.52953 226.77165 303.3766 198.9252" width="303.3766" height="198.9252">
  <defs>
    <marker orient="auto" overflow="visible" markerUnits="strokeWidth" id="FilledArrow_Marker" stroke-linejoin="miter" stroke-miterlimit="10" viewBox="-1 -3 6 6" markerWidth="6" markerHeight="6" color="#414141">
      <g>
        <path d="M 4 0 L 0 -1.5 L 0 1.5 Z" fill="currentColor" stroke="currentColor" stroke-width="1"/>
      </g>
    </marker>
    <marker orient="auto" overflow="visible" markerUnits="strokeWidth" id="FilledArrow_Marker_2" stroke-linejoin="miter" stroke-miterlimit="10" viewBox="-5 -3 6 6" markerWidth="6" markerHeight="6" color="#414141">
      <g>
        <path d="M -4 0 L 0 1.5 L 0 -1.5 Z" fill="currentColor" stroke="currentColor" stroke-width="1"/>
      </g>
    </marker>
  </defs>
  <g id="Mechanisms" stroke="none" stroke-dasharray="none" fill="none" stroke-opacity="1" fill-opacity="1">
    <title>Mechanisms</title>
    <g id="Mechanisms_Layer_1">
      <title>Layer 1</title>
      <g id="Line_155">
        <line x1="325.98425" y1="286.2992" x2="325.98425" y2="396.8504" stroke="#878787" stroke-linecap="round" stroke-linejoin="round" stroke-width="1"/>
      </g>
      <g id="Line_156">
        <line x1="473.3858" y1="286.2992" x2="473.3858" y2="396.8504" stroke="#878787" stroke-linecap="round" stroke-linejoin="round" stroke-width="1"/>
      </g>
      <g id="Graphic_191">
        <path d="M 471.38946 368.9287 L 475.3822 368.9287 C 477.59133 368.9287 479.3822 370.71955 479.3822 372.9287 L 479.3822 377.9767 C 479.3822 380.18584 477.59133 381.9767 475.3822 381.9767 L 471.38946 381.9767 C 469.1803 381.9767 467.38946 380.18584 467.38946 377.9767 L 467.38946 372.9287 C 467.38946 370.71955 469.1803 368.9287 471.38946 368.9287 Z" fill="#c0bfbf"/>
      </g>
      <g id="Graphic_198">
        <path d="M 323.9879 354.6413 L 327.9806 354.6413 C 330.18975 354.6413 331.9806 356.43216 331.9806 358.6413 L 331.9806 364.48097 C 331.9806 366.6901 330.18975 368.48097 327.9806 368.48097 L 323.9879 368.48097 C 321.77875 368.48097 319.9879 366.6901 319.9879 364.48097 L 319.9879 358.6413 C 319.9879 356.43216 321.77875 354.6413 323.9879 354.6413 Z" fill="#c0bfbf"/>
      </g>
      <g id="Graphic_161">
        <path d="M 287.8104 255.1181 L 365.50393 255.1181 C 367.71307 255.1181 369.50393 256.90897 369.50393 259.1181 L 369.50393 282.2992 C 369.50393 284.50835 367.71307 286.2992 365.50393 286.2992 L 287.8104 286.2992 C 285.60128 286.2992 283.8104 284.50835 283.8104 282.2992 L 283.8104 259.1181 C 283.8104 256.90897 285.60128 255.1181 287.8104 255.1181 Z" fill="#414141"/>
        <text transform="translate(288.8104 263.20866)" fill="white">
          <tspan font-family="Lato" font-size="12" fill="white" x="20.74976" y="12" xml:space="preserve">SRTP2</tspan>
        </text>
      </g>
      <g id="Graphic_162">
        <path d="M 435.86614 255.1181 L 513.55966 255.1181 C 515.7688 255.1181 517.55966 256.90897 517.55966 259.1181 L 517.55966 282.2992 C 517.55966 284.50835 515.7688 286.2992 513.55966 286.2992 L 435.86614 286.2992 C 433.657 286.2992 431.86614 284.50835 431.86614 282.2992 L 431.86614 259.1181 C 431.86614 256.90897 433.657 255.1181 435.86614 255.1181 Z" fill="#c0bfbf"/>
        <text transform="translate(436.86614 263.20866)" fill="#414141">
          <tspan font-family="Lato" font-size="12" fill="#414141" x="8.81276" y="12" xml:space="preserve">Application</tspan>
        </text>
      </g>
      <g id="Line_183">
        <line x1="473.3858" y1="311.77165" x2="331.88425" y2="311.77165" marker-end="url(#FilledArrow_Marker)" stroke="#414141" stroke-linecap="butt" stroke-linejoin="round" stroke-width="1"/>
      </g>
      <g id="Graphic_184">
        <text transform="translate(330.98425 299.80315)" fill="#414141">
          <tspan font-family="Lato" font-size="8" fill="#414141" x="15.97479" y="8" xml:space="preserve">evSubscribeRequest(</tspan>
          <tspan font-family="Lato" font-size="8" fill="#0072a3" y="8" xml:space="preserve">Event ID</tspan>
          <tspan font-family="Lato" font-size="8" fill="#414141" y="8" xml:space="preserve">)</tspan>
        </text>
      </g>
      <g id="Graphic_188">
        <path d="M 276.12598 345.82677 L 305.81102 345.82677 C 308.57245 345.82677 310.81102 348.06535 310.81102 350.82677 L 310.81102 357.83464 C 310.81102 360.59607 308.57245 362.83464 305.81102 362.83464 L 276.12598 362.83464 C 273.36456 362.83464 271.12598 360.59607 271.12598 357.83464 L 271.12598 350.82677 C 271.12598 348.06535 273.36456 345.82677 276.12598 345.82677 Z" fill="#c0bfbf"/>
        <path d="M 276.12598 345.82677 L 305.81102 345.82677 C 308.57245 345.82677 310.81102 348.06535 310.81102 350.82677 L 310.81102 357.83464 C 310.81102 360.59607 308.57245 362.83464 305.81102 362.83464 L 276.12598 362.83464 C 273.36456 362.83464 271.12598 360.59607 271.12598 357.83464 L 271.12598 350.82677 C 271.12598 348.06535 273.36456 345.82677 276.12598 345.82677 Z" stroke="#878787" stroke-linecap="round" stroke-linejoin="round" stroke-width=".5"/>
        <text transform="translate(276.12598 345.82677)" fill="#414141">
          <tspan font-family="Lato" font-size="7" fill="#414141" x="4.43702" y="7" xml:space="preserve">MPDU</tspan>
        </text>
      </g>
      <g id="Line_189">
        <line x1="320.08425" y1="354.3307" x2="310.81102" y2="354.3307" marker-start="url(#FilledArrow_Marker_2)" stroke="#414141" stroke-linecap="butt" stroke-linejoin="round" stroke-width="1"/>
      </g>
      <g id="Graphic_190">
        <path d="M 291.13386 354.3307 L 298.47244 354.3307 C 299.577 354.3307 300.47244 355.22614 300.47244 356.3307 L 300.47244 360.83464 C 300.47244 361.9392 299.577 362.83464 298.47244 362.83464 L 291.13386 362.83464 C 290.0293 362.83464 289.13386 361.9392 289.13386 360.83464 L 289.13386 356.3307 C 289.13386 355.22614 290.0293 354.3307 291.13386 354.3307 Z" fill="#414141"/>
        <path d="M 291.13386 354.3307 L 298.47244 354.3307 C 299.577 354.3307 300.47244 355.22614 300.47244 356.3307 L 300.47244 360.83464 C 300.47244 361.9392 299.577 362.83464 298.47244 362.83464 L 291.13386 362.83464 C 290.0293 362.83464 289.13386 361.9392 289.13386 360.83464 L 289.13386 356.3307 C 289.13386 355.22614 290.0293 354.3307 291.13386 354.3307 Z" stroke="#878787" stroke-linecap="round" stroke-linejoin="round" stroke-width=".5"/>
        <text transform="translate(289.13386 354.58268)" fill="white">
          <tspan font-family="Lato" font-size="7" fill="white" x="1.3450415" y="7" xml:space="preserve">EV</tspan>
        </text>
      </g>
      <g id="Line_194">
        <line x1="467.4859" y1="369.3039" x2="325.98425" y2="368.50393" marker-start="url(#FilledArrow_Marker_2)" stroke="#414141" stroke-linecap="butt" stroke-linejoin="round" stroke-width="1"/>
      </g>
      <g id="Graphic_195">
        <text transform="translate(330.98425 356.49606)" fill="#414141">
          <tspan font-family="Lato" font-size="8" fill="#414141" x=".2287904" y="8" xml:space="preserve">evDataIndication(</tspan>
          <tspan font-family="Lato" font-size="8" fill="#0072a3" y="8" xml:space="preserve">Event ID</tspan>
          <tspan font-family="Lato" font-size="8" fill="#414141" y="8" xml:space="preserve">,</tspan>
          <tspan font-family="Lato" font-size="8" fill="#0072a3" y="8" xml:space="preserve"> Event Data</tspan>
          <tspan font-family="Lato" font-size="8" fill="#414141" y="8" xml:space="preserve">)</tspan>
        </text>
      </g>
    </g>
  </g>
</svg>
