<?xml version="1.0" encoding="UTF-8" standalone="no"?>
<!DOCTYPE svg PUBLIC "-//W3C//DTD SVG 1.1//EN" "http://www.w3.org/Graphics/SVG/1.1/DTD/svg11.dtd">
<svg xmlns:xl="http://www.w3.org/1999/xlink" xmlns="http://www.w3.org/2000/svg" xmlns:dc="http://purl.org/dc/elements/1.1/" version="1.1" viewBox="56.19291 6.181102 738.0079 390.9193" width="738.0079" height="390.9193">
  <defs>
    <marker orient="auto" overflow="visible" markerUnits="strokeWidth" id="FilledArrow_Marker" stroke-linejoin="miter" stroke-miterlimit="10" viewBox="-1 -3 6 6" markerWidth="6" markerHeight="6" color="#414141">
      <g>
        <path d="M 4 0 L 0 -1.5 L 0 1.5 Z" fill="currentColor" stroke="currentColor" stroke-width="1"/>
      </g>
    </marker>
    <marker orient="auto" overflow="visible" markerUnits="strokeWidth" id="FilledArrow_Marker_2" stroke-linejoin="miter" stroke-miterlimit="10" viewBox="-5 -3 6 6" markerWidth="6" markerHeight="6" color="#414141">
      <g>
        <path d="M -4 0 L 0 1.5 L 0 -1.5 Z" fill="currentColor" stroke="currentColor" stroke-width="1"/>
      </g>
    </marker>
    <marker orient="auto" overflow="visible" markerUnits="strokeWidth" id="StickArrow_Marker" stroke-linejoin="miter" stroke-miterlimit="10" viewBox="-1 -2 4 4" markerWidth="4" markerHeight="4" color="#0072a3">
      <g>
        <path d="M 1.8666667 0 L 0 0 M 0 -.7 L 1.8666667 0 L 0 .7" fill="none" stroke="currentColor" stroke-width="1"/>
      </g>
    </marker>
  </defs>
  <g id="Sequence" stroke="none" stroke-dasharray="none" fill="none" stroke-opacity="1" fill-opacity="1">
    <title>Sequence</title>
    <g id="Sequence_Layer_1">
      <title>Layer 1</title>
      <g id="Line_103">
        <line x1="226.77165" y1="368.50393" x2="227.77165" y2="141.73228" stroke="#878787" stroke-linecap="round" stroke-linejoin="round" stroke-width=".5"/>
      </g>
      <g id="Line_104">
        <line x1="255.1181" y1="368.50393" x2="255.1181" y2="184.25197" stroke="#878787" stroke-linecap="round" stroke-linejoin="round" stroke-width=".5"/>
      </g>
      <g id="Line_73">
        <line x1="113.38583" y1="85.03937" x2="765.3543" y2="85.03937" stroke="#414141" stroke-linecap="round" stroke-linejoin="round" stroke-width="1"/>
      </g>
      <g id="Line_92">
        <line x1="113.38583" y1="113.38583" x2="765.3543" y2="113.38583" stroke="#414141" stroke-linecap="round" stroke-linejoin="round" stroke-width="1"/>
      </g>
      <g id="Line_84">
        <line x1="175.97874" y1="56.69291" x2="646.0685" y2="56.69291" marker-end="url(#FilledArrow_Marker)" marker-start="url(#FilledArrow_Marker_2)" stroke="#414141" stroke-linecap="round" stroke-linejoin="round" stroke-width="1"/>
      </g>
      <g id="Line_85">
        <line x1="170.07874" y1="99.2126" x2="170.07874" y2="48.188976" stroke="#878787" stroke-linecap="round" stroke-linejoin="round" stroke-width=".5"/>
      </g>
      <g id="Line_86">
        <line x1="651.9685" y1="99.2126" x2="651.9685" y2="48.188976" stroke="#878787" stroke-linecap="round" stroke-linejoin="round" stroke-width=".5"/>
      </g>
      <g id="Line_75">
        <line x1="113.38583" y1="127.55905" x2="765.3543" y2="127.55905" stroke="#878787" stroke-linecap="round" stroke-linejoin="round" stroke-width="1"/>
      </g>
      <g id="Line_77">
        <line x1="113.38583" y1="155.90551" x2="765.3543" y2="155.90551" stroke="#878787" stroke-linecap="round" stroke-linejoin="round" stroke-width="1"/>
      </g>
      <g id="Line_69">
        <line x1="113.38583" y1="170.07874" x2="765.3543" y2="170.07874" stroke="#414141" stroke-linecap="round" stroke-linejoin="round" stroke-width="1"/>
      </g>
      <g id="Graphic_57">
        <path d="M 94.03937 85.03937 L 132.73228 85.03937 C 137.70285 85.03937 141.73228 89.06881 141.73228 94.03937 L 141.73228 104.38583 C 141.73228 109.35639 137.70285 113.38583 132.73228 113.38583 L 94.03937 113.38583 C 89.06881 113.38583 85.03937 109.35639 85.03937 104.38583 L 85.03937 94.03937 C 85.03937 89.06881 89.06881 85.03937 94.03937 85.03937 Z" fill="#414141"/>
        <path d="M 94.03937 85.03937 L 132.73228 85.03937 C 137.70285 85.03937 141.73228 89.06881 141.73228 94.03937 L 141.73228 104.38583 C 141.73228 109.35639 137.70285 113.38583 132.73228 113.38583 L 94.03937 113.38583 C 89.06881 113.38583 85.03937 109.35639 85.03937 104.38583 L 85.03937 94.03937 C 85.03937 89.06881 89.06881 85.03937 94.03937 85.03937 Z" stroke="#414141" stroke-linecap="round" stroke-linejoin="round" stroke-width="1"/>
        <text transform="translate(90.03937 89.7126)" fill="white">
          <tspan font-family="Lato" font-size="16" fill="white" x="10.042457" y="16" xml:space="preserve">MN</tspan>
        </text>
      </g>
      <g id="Graphic_58">
        <path d="M 94.03937 170.07874 L 132.73228 170.07874 C 137.70285 170.07874 141.73228 174.10818 141.73228 179.07874 L 141.73228 189.4252 C 141.73228 194.39576 137.70285 198.4252 132.73228 198.4252 L 94.03937 198.4252 C 89.06881 198.4252 85.03937 194.39576 85.03937 189.4252 L 85.03937 179.07874 C 85.03937 174.10818 89.06881 170.07874 94.03937 170.07874 Z" fill="#414141"/>
        <path d="M 94.03937 170.07874 L 132.73228 170.07874 C 137.70285 170.07874 141.73228 174.10818 141.73228 179.07874 L 141.73228 189.4252 C 141.73228 194.39576 137.70285 198.4252 132.73228 198.4252 L 94.03937 198.4252 C 89.06881 198.4252 85.03937 194.39576 85.03937 189.4252 L 85.03937 179.07874 C 85.03937 174.10818 89.06881 170.07874 94.03937 170.07874 Z" stroke="#414141" stroke-linecap="round" stroke-linejoin="round" stroke-width="1"/>
        <text transform="translate(90.03937 175.75197)" fill="white">
          <tspan font-family="Lato" font-size="14" fill="white" x="3.3089565" y="14" xml:space="preserve">CN #1</tspan>
        </text>
      </g>
      <g id="Graphic_59">
        <path d="M 94.03937 201.25984 L 132.73228 201.25984 C 137.70285 201.25984 141.73228 205.28928 141.73228 210.25984 L 141.73228 220.6063 C 141.73228 225.57686 137.70285 229.6063 132.73228 229.6063 L 94.03937 229.6063 C 89.06881 229.6063 85.03937 225.57686 85.03937 220.6063 L 85.03937 210.25984 C 85.03937 205.28928 89.06881 201.25984 94.03937 201.25984 Z" fill="#414141"/>
        <path d="M 94.03937 201.25984 L 132.73228 201.25984 C 137.70285 201.25984 141.73228 205.28928 141.73228 210.25984 L 141.73228 220.6063 C 141.73228 225.57686 137.70285 229.6063 132.73228 229.6063 L 94.03937 229.6063 C 89.06881 229.6063 85.03937 225.57686 85.03937 220.6063 L 85.03937 210.25984 C 85.03937 205.28928 89.06881 201.25984 94.03937 201.25984 Z" stroke="#414141" stroke-linecap="round" stroke-linejoin="round" stroke-width="1"/>
        <text transform="translate(90.03937 206.93307)" fill="white">
          <tspan font-family="Lato" font-size="14" fill="white" x="3.3089565" y="14" xml:space="preserve">CN #2</tspan>
        </text>
      </g>
      <g id="Graphic_60">
        <path d="M 94.03937 232.44094 L 132.73228 232.44094 C 137.70285 232.44094 141.73228 236.47038 141.73228 241.44094 L 141.73228 251.7874 C 141.73228 256.75796 137.70285 260.7874 132.73228 260.7874 L 94.03937 260.7874 C 89.06881 260.7874 85.03937 256.75796 85.03937 251.7874 L 85.03937 241.44094 C 85.03937 236.47038 89.06881 232.44094 94.03937 232.44094 Z" fill="#414141"/>
        <path d="M 94.03937 232.44094 L 132.73228 232.44094 C 137.70285 232.44094 141.73228 236.47038 141.73228 241.44094 L 141.73228 251.7874 C 141.73228 256.75796 137.70285 260.7874 132.73228 260.7874 L 94.03937 260.7874 C 89.06881 260.7874 85.03937 256.75796 85.03937 251.7874 L 85.03937 241.44094 C 85.03937 236.47038 89.06881 232.44094 94.03937 232.44094 Z" stroke="#414141" stroke-linecap="round" stroke-linejoin="round" stroke-width="1"/>
        <text transform="translate(90.03937 238.11417)" fill="white">
          <tspan font-family="Lato" font-size="14" fill="white" x="3.3089565" y="14" xml:space="preserve">CN #3</tspan>
        </text>
      </g>
      <g id="Graphic_61">
        <path d="M 94.03937 283.46457 L 132.73228 283.46457 C 137.70285 283.46457 141.73228 287.494 141.73228 292.46457 L 141.73228 302.81102 C 141.73228 307.7816 137.70285 311.81102 132.73228 311.81102 L 94.03937 311.81102 C 89.06881 311.81102 85.03937 307.7816 85.03937 302.81102 L 85.03937 292.46457 C 85.03937 287.494 89.06881 283.46457 94.03937 283.46457 Z" fill="#414141"/>
        <path d="M 94.03937 283.46457 L 132.73228 283.46457 C 137.70285 283.46457 141.73228 287.494 141.73228 292.46457 L 141.73228 302.81102 C 141.73228 307.7816 137.70285 311.81102 132.73228 311.81102 L 94.03937 311.81102 C 89.06881 311.81102 85.03937 307.7816 85.03937 302.81102 L 85.03937 292.46457 C 85.03937 287.494 89.06881 283.46457 94.03937 283.46457 Z" stroke="#414141" stroke-linecap="round" stroke-linejoin="round" stroke-width="1"/>
        <text transform="translate(90.03937 289.1378)" fill="white">
          <tspan font-family="Lato" font-size="14" fill="white" x="3.5189565" y="14" xml:space="preserve">CN #n</tspan>
        </text>
      </g>
      <g id="Graphic_23">
        <text transform="translate(103.62705 258.46457)" fill="#414141">
          <tspan font-family="Lato" font-weight="bold" font-size="16" fill="#414141" x="6981082e-19" y="16" xml:space="preserve">. . .</tspan>
        </text>
      </g>
      <g id="Graphic_62">
        <path d="M 179.07874 85.03937 L 217.77165 85.03937 C 222.74221 85.03937 226.77165 89.06881 226.77165 94.03937 L 226.77165 104.38583 C 226.77165 109.35639 222.74221 113.38583 217.77165 113.38583 L 179.07874 113.38583 C 174.10818 113.38583 170.07874 109.35639 170.07874 104.38583 L 170.07874 94.03937 C 170.07874 89.06881 174.10818 85.03937 179.07874 85.03937 Z" fill="#c0bfbf"/>
        <path d="M 179.07874 85.03937 L 217.77165 85.03937 C 222.74221 85.03937 226.77165 89.06881 226.77165 94.03937 L 226.77165 104.38583 C 226.77165 109.35639 222.74221 113.38583 217.77165 113.38583 L 179.07874 113.38583 C 174.10818 113.38583 170.07874 109.35639 170.07874 104.38583 L 170.07874 94.03937 C 170.07874 89.06881 174.10818 85.03937 179.07874 85.03937 Z" stroke="#878787" stroke-linecap="round" stroke-linejoin="round" stroke-width="2"/>
        <text transform="translate(175.07874 91.7126)" fill="#414141">
          <tspan font-family="Lato" font-size="12" fill="#414141" x="4.1494565" y="12" xml:space="preserve">Beacon</tspan>
        </text>
      </g>
      <g id="Graphic_65">
        <path d="M 264.1181 170.07874 L 314.1496 170.07874 C 319.12017 170.07874 323.1496 174.10818 323.1496 179.07874 L 323.1496 189.4252 C 323.1496 194.39576 319.12017 198.4252 314.1496 198.4252 L 264.1181 198.4252 C 259.14755 198.4252 255.1181 194.39576 255.1181 189.4252 L 255.1181 179.07874 C 255.1181 174.10818 259.14755 170.07874 264.1181 170.07874 Z" fill="#c0bfbf"/>
        <path d="M 264.1181 170.07874 L 314.1496 170.07874 C 319.12017 170.07874 323.1496 174.10818 323.1496 179.07874 L 323.1496 189.4252 C 323.1496 194.39576 319.12017 198.4252 314.1496 198.4252 L 264.1181 198.4252 C 259.14755 198.4252 255.1181 194.39576 255.1181 189.4252 L 255.1181 179.07874 C 255.1181 174.10818 259.14755 170.07874 264.1181 170.07874 Z" stroke="#878787" stroke-linecap="round" stroke-linejoin="round" stroke-width="2"/>
        <text transform="translate(260.1181 176.75197)" fill="#414141">
          <tspan font-family="Lato" font-size="12" fill="#414141" x="2.588747" y="12" xml:space="preserve">MPDU #1</tspan>
        </text>
      </g>
      <g id="Graphic_66">
        <path d="M 266.95275 201.25984 L 333.99212 201.25984 C 338.9627 201.25984 342.99212 205.28928 342.99212 210.25984 L 342.99212 220.6063 C 342.99212 225.57686 338.9627 229.6063 333.99212 229.6063 L 266.95275 229.6063 C 261.9822 229.6063 257.95275 225.57686 257.95275 220.6063 L 257.95275 210.25984 C 257.95275 205.28928 261.9822 201.25984 266.95275 201.25984 Z" fill="#c0bfbf"/>
        <path d="M 266.95275 201.25984 L 333.99212 201.25984 C 338.9627 201.25984 342.99212 205.28928 342.99212 210.25984 L 342.99212 220.6063 C 342.99212 225.57686 338.9627 229.6063 333.99212 229.6063 L 266.95275 229.6063 C 261.9822 229.6063 257.95275 225.57686 257.95275 220.6063 L 257.95275 210.25984 C 257.95275 205.28928 261.9822 201.25984 266.95275 201.25984 Z" stroke="#878787" stroke-linecap="round" stroke-linejoin="round" stroke-width="2"/>
        <text transform="translate(262.95275 207.93307)" fill="#414141">
          <tspan font-family="Lato" font-size="12" fill="#414141" x="11.092684" y="12" xml:space="preserve">MPDU #2</tspan>
        </text>
      </g>
      <g id="Graphic_67">
        <path d="M 264.1181 232.44094 L 348.16535 232.44094 C 353.1359 232.44094 357.16535 236.47038 357.16535 241.44094 L 357.16535 251.7874 C 357.16535 256.75796 353.1359 260.7874 348.16535 260.7874 L 264.1181 260.7874 C 259.14755 260.7874 255.1181 256.75796 255.1181 251.7874 L 255.1181 241.44094 C 255.1181 236.47038 259.14755 232.44094 264.1181 232.44094 Z" fill="#c0bfbf"/>
        <path d="M 264.1181 232.44094 L 348.16535 232.44094 C 353.1359 232.44094 357.16535 236.47038 357.16535 241.44094 L 357.16535 251.7874 C 357.16535 256.75796 353.1359 260.7874 348.16535 260.7874 L 264.1181 260.7874 C 259.14755 260.7874 255.1181 256.75796 255.1181 251.7874 L 255.1181 241.44094 C 255.1181 236.47038 259.14755 232.44094 264.1181 232.44094 Z" stroke="#878787" stroke-linecap="round" stroke-linejoin="round" stroke-width="2"/>
        <text transform="translate(260.1181 239.11417)" fill="#414141">
          <tspan font-family="Lato" font-size="12" fill="#414141" x="19.59662" y="12" xml:space="preserve">MPDU #3</tspan>
        </text>
      </g>
      <g id="Graphic_68">
        <path d="M 261.28346 283.46457 L 322.65354 283.46457 C 327.6241 283.46457 331.65354 287.494 331.65354 292.46457 L 331.65354 302.81102 C 331.65354 307.7816 327.6241 311.81102 322.65354 311.81102 L 261.28346 311.81102 C 256.3129 311.81102 252.28346 307.7816 252.28346 302.81102 L 252.28346 292.46457 C 252.28346 287.494 256.3129 283.46457 261.28346 283.46457 Z" fill="#c0bfbf"/>
        <path d="M 261.28346 283.46457 L 322.65354 283.46457 C 327.6241 283.46457 331.65354 287.494 331.65354 292.46457 L 331.65354 302.81102 C 331.65354 307.7816 327.6241 311.81102 322.65354 311.81102 L 261.28346 311.81102 C 256.3129 311.81102 252.28346 307.7816 252.28346 302.81102 L 252.28346 292.46457 C 252.28346 287.494 256.3129 283.46457 261.28346 283.46457 Z" stroke="#878787" stroke-linecap="round" stroke-linejoin="round" stroke-width="2"/>
        <text transform="translate(257.28346 290.1378)" fill="#414141">
          <tspan font-family="Lato" font-size="12" fill="#414141" x="8.43804" y="12" xml:space="preserve">MPDU #n</tspan>
        </text>
      </g>
      <g id="Graphic_74">
        <path d="M 94.03937 127.55905 L 132.73228 127.55905 C 137.70285 127.55905 141.73228 131.58849 141.73228 136.55905 L 141.73228 146.90551 C 141.73228 151.87607 137.70285 155.90551 132.73228 155.90551 L 94.03937 155.90551 C 89.06881 155.90551 85.03937 151.87607 85.03937 146.90551 L 85.03937 136.55905 C 85.03937 131.58849 89.06881 127.55905 94.03937 127.55905 Z" fill="#878787"/>
        <path d="M 94.03937 127.55905 L 132.73228 127.55905 C 137.70285 127.55905 141.73228 131.58849 141.73228 136.55905 L 141.73228 146.90551 C 141.73228 151.87607 137.70285 155.90551 132.73228 155.90551 L 94.03937 155.90551 C 89.06881 155.90551 85.03937 151.87607 85.03937 146.90551 L 85.03937 136.55905 C 85.03937 131.58849 89.06881 127.55905 94.03937 127.55905 Z" stroke="#878787" stroke-linecap="round" stroke-linejoin="round" stroke-width="1"/>
        <text transform="translate(90.03937 133.73228)" fill="white">
          <tspan font-family="Lato" font-style="italic" font-size="13" fill="white" x=".07970653" y="13" xml:space="preserve">Ethernet</tspan>
        </text>
      </g>
      <g id="Graphic_76">
        <path d="M 179.07874 127.55905 L 217.77165 127.55905 C 222.74221 127.55905 226.77165 131.58849 226.77165 136.55905 L 226.77165 146.90551 C 226.77165 151.87607 222.74221 155.90551 217.77165 155.90551 L 179.07874 155.90551 C 174.10818 155.90551 170.07874 151.87607 170.07874 146.90551 L 170.07874 136.55905 C 170.07874 131.58849 174.10818 127.55905 179.07874 127.55905 Z" fill="#c0bfbf"/>
        <path d="M 179.07874 127.55905 L 217.77165 127.55905 C 222.74221 127.55905 226.77165 131.58849 226.77165 136.55905 L 226.77165 146.90551 C 226.77165 151.87607 222.74221 155.90551 217.77165 155.90551 L 179.07874 155.90551 C 174.10818 155.90551 170.07874 151.87607 170.07874 146.90551 L 170.07874 136.55905 C 170.07874 131.58849 174.10818 127.55905 179.07874 127.55905 Z" stroke="#0072a3" stroke-linecap="round" stroke-linejoin="round" stroke-width="2"/>
        <text transform="translate(175.07874 134.23228)" fill="#0072a3">
          <tspan font-family="Lato" font-size="12" fill="#0072a3" x="4.1494565" y="12" xml:space="preserve">Beacon</tspan>
        </text>
      </g>
      <g id="Graphic_78">
        <path d="M 264.1181 127.55905 L 331.15748 127.55905 C 336.12804 127.55905 340.15748 131.58849 340.15748 136.55905 L 340.15748 146.90551 C 340.15748 151.87607 336.12804 155.90551 331.15748 155.90551 L 264.1181 155.90551 C 259.14755 155.90551 255.1181 151.87607 255.1181 146.90551 L 255.1181 136.55905 C 255.1181 131.58849 259.14755 127.55905 264.1181 127.55905 Z" fill="#c0bfbf"/>
        <path d="M 264.1181 127.55905 L 331.15748 127.55905 C 336.12804 127.55905 340.15748 131.58849 340.15748 136.55905 L 340.15748 146.90551 C 340.15748 151.87607 336.12804 155.90551 331.15748 155.90551 L 264.1181 155.90551 C 259.14755 155.90551 255.1181 151.87607 255.1181 146.90551 L 255.1181 136.55905 C 255.1181 131.58849 259.14755 127.55905 264.1181 127.55905 Z" stroke="#0072a3" stroke-linecap="round" stroke-linejoin="round" stroke-width="2"/>
        <text transform="translate(260.1181 134.23228)" fill="#0072a3">
          <tspan font-family="Lato" font-size="12" fill="#0072a3" x="11.092684" y="12" xml:space="preserve">MPDU #2</tspan>
        </text>
      </g>
      <g id="Graphic_79">
        <path d="M 349.15748 127.55905 L 410.52756 127.55905 C 415.4981 127.55905 419.52756 131.58849 419.52756 136.55905 L 419.52756 146.90551 C 419.52756 151.87607 415.4981 155.90551 410.52756 155.90551 L 349.15748 155.90551 C 344.1869 155.90551 340.15748 151.87607 340.15748 146.90551 L 340.15748 136.55905 C 340.15748 131.58849 344.1869 127.55905 349.15748 127.55905 Z" fill="#c0bfbf"/>
        <path d="M 349.15748 127.55905 L 410.52756 127.55905 C 415.4981 127.55905 419.52756 131.58849 419.52756 136.55905 L 419.52756 146.90551 C 419.52756 151.87607 415.4981 155.90551 410.52756 155.90551 L 349.15748 155.90551 C 344.1869 155.90551 340.15748 151.87607 340.15748 146.90551 L 340.15748 136.55905 C 340.15748 131.58849 344.1869 127.55905 349.15748 127.55905 Z" stroke="#0072a3" stroke-linecap="round" stroke-linejoin="round" stroke-width="2"/>
        <text transform="translate(345.15748 134.23228)" fill="#0072a3">
          <tspan font-family="Lato" font-size="12" fill="#0072a3" x="8.43804" y="12" xml:space="preserve">MPDU #n</tspan>
        </text>
      </g>
      <g id="Graphic_80">
        <path d="M 428.3958 127.55905 L 512.5748 127.55905 C 517.54536 127.55905 521.5748 131.58849 521.5748 136.55905 L 521.5748 146.90551 C 521.5748 151.87607 517.54536 155.90551 512.5748 155.90551 L 428.3958 155.90551 C 423.4252 155.90551 419.3958 151.87607 419.3958 146.90551 L 419.3958 136.55905 C 419.3958 131.58849 423.4252 127.55905 428.3958 127.55905 Z" fill="#c0bfbf"/>
        <path d="M 428.3958 127.55905 L 512.5748 127.55905 C 517.54536 127.55905 521.5748 131.58849 521.5748 136.55905 L 521.5748 146.90551 C 521.5748 151.87607 517.54536 155.90551 512.5748 155.90551 L 428.3958 155.90551 C 423.4252 155.90551 419.3958 151.87607 419.3958 146.90551 L 419.3958 136.55905 C 419.3958 131.58849 423.4252 127.55905 428.3958 127.55905 Z" stroke="#0072a3" stroke-linecap="round" stroke-linejoin="round" stroke-width="2"/>
        <text transform="translate(424.3958 134.23228)" fill="#0072a3">
          <tspan font-family="Lato" font-size="12" fill="#0072a3" x="19.662508" y="12" xml:space="preserve">MPDU #3</tspan>
        </text>
      </g>
      <g id="Graphic_81">
        <path d="M 530.5748 127.55905 L 580.2489 127.55905 C 585.21945 127.55905 589.2489 131.58849 589.2489 136.55905 L 589.2489 146.90551 C 589.2489 151.87607 585.21945 155.90551 580.2489 155.90551 L 530.5748 155.90551 C 525.60424 155.90551 521.5748 151.87607 521.5748 146.90551 L 521.5748 136.55905 C 521.5748 131.58849 525.60424 127.55905 530.5748 127.55905 Z" fill="#c0bfbf"/>
        <path d="M 530.5748 127.55905 L 580.2489 127.55905 C 585.21945 127.55905 589.2489 131.58849 589.2489 136.55905 L 589.2489 146.90551 C 589.2489 151.87607 585.21945 155.90551 580.2489 155.90551 L 530.5748 155.90551 C 525.60424 155.90551 521.5748 151.87607 521.5748 146.90551 L 521.5748 136.55905 C 521.5748 131.58849 525.60424 127.55905 530.5748 127.55905 Z" stroke="#0072a3" stroke-linecap="round" stroke-linejoin="round" stroke-width="2"/>
        <text transform="translate(526.5748 134.23228)" fill="#0072a3">
          <tspan font-family="Lato" font-size="12" fill="#0072a3" x="2.4100419" y="12" xml:space="preserve">MPDU #1</tspan>
        </text>
      </g>
      <g id="Graphic_82">
        <path d="M 660.9685 85.03937 L 699.6614 85.03937 C 704.632 85.03937 708.6614 89.06881 708.6614 94.03937 L 708.6614 104.38583 C 708.6614 109.35639 704.632 113.38583 699.6614 113.38583 L 660.9685 113.38583 C 655.9979 113.38583 651.9685 109.35639 651.9685 104.38583 L 651.9685 94.03937 C 651.9685 89.06881 655.9979 85.03937 660.9685 85.03937 Z" fill="#c0bfbf"/>
        <text transform="translate(656.9685 91.7126)" fill="#414141">
          <tspan font-family="Lato" font-size="12" fill="#414141" x="4.1494565" y="12" xml:space="preserve">Beacon</tspan>
        </text>
      </g>
      <g id="Graphic_83">
        <path d="M 660.9685 127.55905 L 699.6614 127.55905 C 704.632 127.55905 708.6614 131.58849 708.6614 136.55905 L 708.6614 146.90551 C 708.6614 151.87607 704.632 155.90551 699.6614 155.90551 L 660.9685 155.90551 C 655.9979 155.90551 651.9685 151.87607 651.9685 146.90551 L 651.9685 136.55905 C 651.9685 131.58849 655.9979 127.55905 660.9685 127.55905 Z" fill="#c0bfbf"/>
        <path d="M 660.9685 127.55905 L 699.6614 127.55905 C 704.632 127.55905 708.6614 131.58849 708.6614 136.55905 L 708.6614 146.90551 C 708.6614 151.87607 704.632 155.90551 699.6614 155.90551 L 660.9685 155.90551 C 655.9979 155.90551 651.9685 151.87607 651.9685 146.90551 L 651.9685 136.55905 C 651.9685 131.58849 655.9979 127.55905 660.9685 127.55905 Z" stroke="#0072a3" stroke-linecap="round" stroke-linejoin="round" stroke-width="2"/>
        <text transform="translate(656.9685 134.23228)" fill="#0072a3">
          <tspan font-family="Lato" font-size="12" fill="#0072a3" x="4.1494565" y="12" xml:space="preserve">Beacon</tspan>
        </text>
      </g>
      <g id="Graphic_87">
        <text transform="translate(396.62295 39.52756)" fill="#414141">
          <tspan font-family="Lato" font-size="12" fill="#414141" x="0" y="12" xml:space="preserve">Cycle time</tspan>
        </text>
      </g>
      <g id="Graphic_88">
        <text transform="translate(727.0104 128.07087)" fill="#414141">
          <tspan font-family="Lato" font-weight="bold" font-size="16" fill="#414141" x="6981082e-19" y="16" xml:space="preserve">. . .</tspan>
        </text>
      </g>
      <g id="Line_91">
        <path d="M 257.95275 215.43307 L 235.2756 215.43307 L 235.2756 170.07874 L 251.78358 160.90763" marker-end="url(#StickArrow_Marker)" stroke="#0072a3" stroke-linecap="butt" stroke-linejoin="round" stroke-width="3"/>
      </g>
      <g id="Line_93">
        <path d="M 332.65354 297.6378 L 368.50393 297.6378 L 368.50393 166.20551" marker-end="url(#StickArrow_Marker)" stroke="#0072a3" stroke-linecap="butt" stroke-linejoin="round" stroke-width="3"/>
      </g>
      <g id="Line_94">
        <line x1="113.38583" y1="198.4252" x2="765.3543" y2="198.4252" stroke="#414141" stroke-linecap="round" stroke-linejoin="round" stroke-width="1"/>
      </g>
      <g id="Line_95">
        <line x1="113.38583" y1="201.25984" x2="765.3543" y2="201.25984" stroke="#414141" stroke-linecap="round" stroke-linejoin="round" stroke-width="1"/>
      </g>
      <g id="Line_96">
        <line x1="113.38583" y1="229.6063" x2="765.3543" y2="229.6063" stroke="#414141" stroke-linecap="round" stroke-linejoin="round" stroke-width="1"/>
      </g>
      <g id="Line_97">
        <line x1="113.38583" y1="232.44094" x2="765.3543" y2="232.44094" stroke="#414141" stroke-linecap="round" stroke-linejoin="round" stroke-width="1"/>
      </g>
      <g id="Line_98">
        <line x1="113.38583" y1="260.7874" x2="765.3543" y2="260.7874" stroke="#414141" stroke-linecap="round" stroke-linejoin="round" stroke-width="1"/>
      </g>
      <g id="Line_99">
        <line x1="113.38583" y1="283.46457" x2="765.3543" y2="283.46457" stroke="#414141" stroke-linecap="round" stroke-linejoin="round" stroke-width="1"/>
      </g>
      <g id="Line_100">
        <line x1="113.38583" y1="311.81102" x2="765.3543" y2="311.81102" stroke="#414141" stroke-linecap="round" stroke-linejoin="round" stroke-width="1"/>
      </g>
      <g id="Line_101">
        <path d="M 358.16535 246.61417 L 456.37795 246.61417 L 468.9611 166.08203" marker-end="url(#StickArrow_Marker)" stroke="#0072a3" stroke-linecap="butt" stroke-linejoin="round" stroke-width="3"/>
      </g>
      <g id="Line_102">
        <path d="M 323.1496 184.25197 L 544.25197 184.25197 L 551.24497 166.48951" marker-end="url(#StickArrow_Marker)" stroke="#0072a3" stroke-linecap="butt" stroke-linejoin="round" stroke-width="3"/>
      </g>
      <g id="Line_105">
        <line x1="232.6716" y1="359.97687" x2="249.21815" y2="359.912" marker-end="url(#FilledArrow_Marker)" marker-start="url(#FilledArrow_Marker_2)" stroke="#414141" stroke-linecap="round" stroke-linejoin="round" stroke-width="1"/>
      </g>
      <g id="Line_106">
        <line x1="226.80965" y1="359.88767" x2="365.95275" y2="360" stroke="#414141" stroke-linecap="round" stroke-linejoin="round" stroke-width="1"/>
      </g>
      <g id="Graphic_107">
        <text transform="translate(263.26275 342.32283)" fill="#414141">
          <tspan font-family="Lato" font-size="12" fill="#414141" x="5258016e-19" y="12" xml:space="preserve">Avg Turn over time</tspan>
        </text>
      </g>
    </g>
  </g>
</svg>
